<svg xmlns="http://www.w3.org/2000/svg" viewBox="0 0 1095 1095" width="1095" height="1095">

<path d="M896.5 110.51C897.24 118.42 896.83 126.55 896.83 134.5C896.84 149.17 896.73 163.83 896.77 178.5C896.92 230.5 896.43 282.5 896.64 334.5C896.79 373.83 896.83 413.17 896.71 452.5C896.58 494.36 896.31 536.02 889.81 577.49C871.82 692.3 816.42 800.09 730.32 878.83C690.62 915.14 646.55 946.15 599.22 971.7C586.95 978.32 574.41 984.7 561.5 989.98C557.7 991.53 552.66 995.28 548.5 995.29C544.03 995.3 538.11 991.24 534.07 989.45C521.64 983.98 509.49 977.53 497.73 970.76C453.5 945.27 412.22 916.37 373.9 882.6C283.32 802.78 220.96 692.44 204.25 572.46C198.99 534.67 199.03 496.57 199.06 458.5C199.1 419.5 199.24 380.5 199.08 341.5C198.86 290.5 198.96 239.5 199.07 188.5C199.11 171.5 199.07 154.5 199.09 137.5C199.1 128.58 198.38 119.35 199.5 110.51C431.83 110.51 664.17 110.51 896.5 110.51ZM626.13 154.12C618.56 153.73 610.95 157.06 603.8 159.37C600.67 160.39 597.52 160.41 596.19 163.5C598.19 168.08 605.72 165.01 607.98 170.56C610.5 176.77 608.88 193.2 608.89 200.5C608.91 219.5 608.86 238.5 608.9 257.5C608.91 264.38 610.33 278.51 608.19 284.54C605.51 292.06 597.44 287.47 594.6 293.5C596.65 296.94 600.67 295.91 604.5 295.77C612.53 295.47 620.46 295.45 628.5 295.71C632.04 295.82 636.28 296.74 638.93 294.5C637.99 287.99 630.91 292.18 627.47 287.04C625.67 284.35 626.17 280.55 626.16 277.5C626.14 270.86 624.67 255.86 627.14 250.5C631.03 252.73 634.27 256.84 637.43 260.07C642.7 265.47 648.12 270.72 653.38 276.13C656.82 279.66 661.4 283.05 663.58 287.5C660.65 291.01 655.74 289.75 653.55 293.5C655.65 296.93 659.64 295.87 663.5 295.72C671.88 295.41 680.12 295.28 688.5 295.69C692.05 295.86 696.93 296.91 699.66 294.5C699.61 293.33 700.01 292.33 699.14 291.37C698.12 290.25 695.25 290.03 693.89 289.56C690.38 288.35 687.28 286.45 684.47 284.04C674.18 275.18 664.35 265.36 654.96 255.56C651.31 251.75 646.42 248.17 644.04 243.5C649.31 238.55 656.22 234.73 662.28 230.77C668.52 226.7 674.56 222.06 681.25 218.72C683.44 217.62 694.14 214.5 694.87 213.28C695.39 212.38 695.05 211.45 695.15 210.5C692.04 208.59 688.16 209.48 684.5 209.59C677.5 209.8 670.5 209.59 663.5 209.54C660.12 209.51 656.22 208.74 653.3 210.5C653.51 217.23 660.32 212.9 662.38 220.5C659.2 225.68 653.08 229.23 648.09 232.57C641.18 237.19 634.05 243.5 626.13 245.99C626.13 215.37 626.13 184.75 626.13 154.12ZM322.99 294.5C326.09 296.91 331.53 295.82 335.5 295.66C345.86 295.26 356.13 295.22 366.5 295.35C400.3 295.78 437.72 297.43 458.1 264.62C461.24 259.57 463.59 254.31 465.2 248.59C467.24 241.32 468.29 234.07 468.05 226.5C467.82 219.34 466.39 212.21 464.23 205.39C462.56 200.12 459.98 195.16 456.98 190.53C436.37 158.69 396.91 159.7 363.5 160.76C353.84 161.07 344.17 161.23 334.5 161.35C330.26 161.41 324.49 160.69 321.16 163.5C321.25 164.74 320.9 165.74 321.8 166.76C322.92 168.04 326.02 167.77 327.5 167.93C332.09 168.45 337.47 168.49 341.09 171.5C343.25 179.49 341.97 189.24 341.95 197.5C341.9 213.5 341.94 229.5 341.93 245.5C341.92 254.27 343.4 273.02 341.27 280.62C339.77 285.98 335.49 287.66 330.48 288.86C328.73 289.28 324.72 289.52 323.58 291.03C322.78 292.09 323.08 293.28 322.99 294.5ZM362.96 170.5C368.85 166.85 377.39 167.07 384.12 167.48C401.2 168.53 418.29 174.5 429.91 187.63C456.07 217.19 448.12 269.28 410.14 284.59C405.08 286.62 399.89 287.55 394.52 288.24C390.76 288.73 387.24 288.75 383.48 288.26C380.59 287.89 377.86 287.48 375.14 286.39C360.15 280.41 362.14 266.93 362.14 253.5C362.13 241.17 362.15 228.83 362.14 216.5C362.14 206.5 362.14 196.5 362.12 186.5C362.11 181.3 361.31 175.45 362.96 170.5ZM774.5 244.26C777.27 215.89 750.12 198.92 724.85 210.41C711.02 216.7 703.18 232.15 701.29 246.56C697.48 275.63 716.73 303.51 748.37 297.7C756.2 296.25 763.53 292.26 768.84 286.31C771.31 283.54 774.05 281.01 771.5 277.76C769.03 279 767.31 280.88 765.07 282.56C760.77 285.77 755.41 287.15 750.12 287.51C726.89 289.06 715.5 264.48 719.25 244.26C737.67 244.26 756.08 244.26 774.5 244.26ZM507.24 209.55C497.15 209.55 487.07 209.55 476.98 209.55C477.03 210.94 476.62 212.01 477.1 213.33C477.63 214.79 480.22 214.92 481.42 215.22C485.44 216.24 489.39 216.77 490.11 221.5C490.85 226.35 490.29 231.61 490.29 236.5C490.29 247.83 490.15 259.17 490.35 270.5C490.56 282.88 495.73 294.59 508.79 297.59C511.98 298.33 515.23 298.64 518.5 298.58C523.43 298.5 528.4 297.42 532.89 295.4C538.82 292.73 544.41 288.84 549.5 284.81C550.17 288.82 550.83 292.83 551.5 296.84C559.6 296.99 568.36 295.19 576.34 293.67C580.84 292.82 583.8 293.77 583.72 288.5C578.98 287.48 574.24 286.46 569.5 285.43C566.47 279.22 568 270.32 568.01 263.5C568.01 251.83 567.98 240.17 568 228.5C568.02 222.25 568.93 215.25 567.5 209.19C559.31 208.57 550.74 209.55 542.5 209.69C538.46 209.75 535.46 208.56 533.73 212.5C536.77 217.92 546.9 213.9 549.62 219.82C551.55 224.02 550.35 239.14 550.34 244.5C550.34 250.5 550.34 256.5 550.35 262.5C550.38 275.39 550.24 281.8 536.53 286.1C533.6 287.02 530.46 287.46 527.4 287.55C509 288.12 507.36 276.81 507.43 261.5C507.48 250.17 507.44 238.83 507.45 227.5C507.46 221.59 508.05 215.39 507.24 209.55ZM720.5 237.45C717.56 217.93 747.58 200.94 756.6 222.86C764.21 241.35 738.89 237.68 728.5 237.69C725.83 237.69 723.17 237.59 720.5 237.45ZM339.5 315.12C337.74 317.67 338.41 321.3 338.38 324.5C338.28 332.7 337.76 343.19 348.66 343.53C360.21 343.88 359.88 333.99 359.89 325.5C359.89 322.09 360.68 317.65 358.5 315.2C357.65 315.41 356.78 315.02 356.1 315.79C355.07 316.97 355.6 320.05 355.58 321.5C355.52 327.09 358.01 339.03 349.5 339.34C340.35 339.67 342.58 327.52 342.64 321.5C342.66 320.11 343.28 317.13 342.48 315.92C341.83 314.94 340.49 315.26 339.5 315.12ZM388.5 315.15C386.84 321.37 387.8 329 387.79 335.5C387.78 339.43 386.52 341.79 390.5 343.04C391.82 341.56 390.77 343.97 391.73 342.27C393.14 339.76 391.51 327.63 392.5 323.49C395.59 327.95 398.49 332.55 401.38 337.14C402.3 338.59 403.41 341.64 404.94 342.52C406.1 343.19 407.23 342.94 408.5 343.02C410.37 336.84 409.19 329.04 409.2 322.5C409.2 318.68 410.52 316.25 406.5 315.15C405.32 316.32 406.19 314.42 405.31 315.8C404.22 317.51 405.09 330.83 404.5 334.26C401.53 330.12 398.9 325.64 396.18 321.32C395.16 319.71 393.74 316.42 391.99 315.54C390.93 315 389.64 315.21 388.5 315.15ZM439.5 315.19C437.67 317.18 438.08 319.62 438.1 322.5C438.12 325.63 437.33 340.41 438.33 342.23C439.17 343.77 438.31 341.63 439.5 343.02C440.45 342.75 441.27 343.2 442.01 342.29C442.83 341.29 442.4 338.71 442.41 337.5C442.46 332.83 442.32 328.17 442.37 323.5C442.38 321.61 443.08 318.28 442.29 316.54C441.58 314.96 440.94 315.53 439.5 315.19ZM470.5 315.21C470.07 320.77 474.73 330.19 476.64 335.8C477.18 337.39 477.73 341.24 479.06 342.32C480.12 343.18 481.22 342.95 482.5 343.09C484.76 340.93 485.34 337.92 486.4 334.83C488.54 328.56 491.62 322.02 492.63 315.5C491.47 315.34 490.04 314.83 488.92 315.49C487.55 316.3 487.02 319.7 486.57 321.12C484.96 326.19 483.56 331.39 481.5 336.3C478.89 331.83 477.78 326.33 476.22 321.37C475.75 319.89 475.29 316.56 473.94 315.64C472.89 314.92 471.68 315.25 470.5 315.21ZM537.75 316.5C534.7 313.89 523.61 315.05 519.29 315.5C519.29 324.59 519.29 333.67 519.29 342.76C522.4 343.05 535.01 344.14 537.33 342.81C539.35 341.66 536.46 343.03 538.2 341.5C537.82 340.57 538.28 339.93 537.29 339.27C535.71 338.21 526.22 338.94 523.55 338.5C523.55 335.83 523.55 333.17 523.55 330.5C527.32 330.25 530.76 331.74 531.56 327.5C528.91 326.83 526.27 326.17 523.62 325.5C523.62 323.5 523.62 321.5 523.62 319.5C526.04 319.29 535.78 319.91 537.17 318.75C537.89 318.15 537.55 317.28 537.75 316.5ZM580.89 331.5C586.16 328.28 588.92 320.01 582.11 316.42C577.6 314.04 569.93 314.76 565.09 315.5C564.7 321.81 564.95 328.17 564.95 334.5C564.95 338.18 564.1 340.5 566.5 343.05C567.44 342.75 568.19 343.23 568.9 342.29C569.73 341.19 569.26 334.16 569.5 332.28C571.25 332.11 573.53 331.5 575.23 332.32C580.35 334.79 576.11 344.07 585.5 342.51C583.96 338.84 582.42 335.17 580.89 331.5ZM630.88 319.5C627.62 311.82 611.86 313.88 612.83 323.5C613.6 331.15 624.29 329.47 627.92 334.5C627.16 339.23 623.13 340.55 618.77 338.69C617.72 338.24 616.6 337 615.45 336.89C613.94 336.75 613.16 337.65 612.07 338.5C615.69 344.69 629.93 346.12 631.93 337.45C634.72 325.38 620.65 329.54 617.09 322.5C621.02 313.97 626.19 323.54 630.88 319.5ZM663.5 315.47C662.19 315.41 660.53 314.73 659.63 316.11C658.75 317.46 659.37 320.93 659.36 322.5C659.34 327.17 659.41 331.83 659.41 336.5C659.41 337.87 658.84 340.98 659.53 342.16C660.04 343.04 660.7 342.69 661.5 343.05C665.08 341.69 663.86 339.19 663.86 335.5C663.86 328.99 664.65 321.86 663.5 315.47ZM711.27 316.5C709.54 315.27 712.08 316.23 710.26 315.37C708.87 314.71 693.12 314.71 691.74 315.38C689.93 316.25 692.52 315.25 690.8 316.5C692.33 320.8 694.57 318.73 698.5 319.99C699.01 325.43 698.77 331.02 698.8 336.5C698.81 337.9 698.23 341.1 699.12 342.27C699.81 343.18 700.58 342.74 701.5 343.03C702.84 341.53 701.75 343.99 702.73 342.27C703.61 340.71 702.94 337.25 702.94 335.5C702.95 330.18 702.66 324.74 703.47 319.5C707.59 319.18 709.69 320.68 711.27 316.5ZM747.5 327.08C746.19 324.95 742 316.27 740.17 315.44C738.83 314.84 737.47 315.31 736.13 315.5C738.23 320.46 744.35 327.19 745.51 331.89C746.08 334.23 744.6 341.72 746.59 342.83C747.49 343.33 747.55 342.78 748.5 343.07C751.28 339.76 748.94 335.77 750.12 331.65C751.73 326.05 759.25 320.99 758.5 315.21C752.56 315.72 751.61 323.35 747.5 327.08ZM580.95 326.5C577.59 328.82 573.27 328.16 569.34 327.78C569.34 325.16 569.34 322.53 569.34 319.91C574.74 318.49 584.3 318.13 580.95 326.5ZM447.5 362.11C445.29 368.05 445.43 375.17 444.83 381.5C443.67 393.84 442.09 406.17 440.74 418.5C436.23 459.76 432.66 501.16 429.04 542.5C422.39 618.47 416.24 694.5 409.89 770.5C407.49 799.16 405.14 827.81 403.13 856.5C402.15 870.43 400.24 884.55 400.28 898.5C409.98 907.36 421.21 914.91 431.8 922.66C455.78 940.22 481.11 956.12 507.29 970.21C516.5 975.17 525.83 979.72 535.23 984.29C538.87 986.06 544.37 989.85 548.5 989.81C552.03 989.78 559.18 985.66 562.55 984.07C573.16 979.07 583.64 973.96 594.05 968.55C637.89 945.78 679.35 917.08 716.46 884.5C716.84 880.53 716.17 876.49 716 872.5C715.59 862.49 714.91 852.49 714.25 842.5C712.47 815.51 711.29 788.46 709.14 761.5C707.29 738.21 706.23 714.84 704.64 691.53C701.19 640.84 697.1 590.16 693.32 539.49C690.49 501.46 686.82 463.53 684.02 425.5C683.04 412.13 681.67 398.8 680.3 385.47C679.58 378.45 679.9 370.48 677.5 363.84C667.69 424.56 657.87 485.27 648.06 545.99C641.93 545.99 635.79 545.99 629.66 545.99C629.66 551.23 629.66 556.47 629.66 561.7C626.72 561.7 623.79 561.7 620.85 561.7C620.85 556.47 620.85 551.25 620.85 546.02C612.61 546.02 604.37 546.02 596.13 546.02C596.13 551.24 596.13 556.46 596.13 561.68C594.12 561.68 592.11 561.68 590.11 561.68C588.28 556.68 588.39 550.84 587.72 545.54C586.63 536.9 585.1 528.27 583.63 519.68C579.66 496.55 575.53 473.44 571.32 450.35C569.09 438.15 567.53 425.74 564.5 413.72C561.85 421.23 561.2 429.63 559.8 437.47C558.61 444.17 557.11 450.79 555.9 457.49C551.51 481.88 546.65 506.17 542.24 530.55C540.38 540.84 539.5 551.3 537.5 561.56C535.32 561.56 533.14 561.56 530.96 561.56C530.96 556.39 530.96 551.21 530.96 546.04C522.78 546.04 514.59 546.04 506.41 546.04C506.41 551.25 506.41 556.46 506.41 561.67C503.48 561.67 500.54 561.67 497.61 561.67C497.61 556.45 497.61 551.22 497.61 545.99C491.66 545.99 485.71 545.99 479.76 545.99C469.01 484.7 458.25 423.4 447.5 362.11ZM383.5 423.08C380.63 433.05 380.57 446.95 379.75 457.5C377.69 483.81 377.08 510.14 375.61 536.49C372.71 588.47 370.78 640.47 368.64 692.5C367.58 718.49 365.81 744.5 365.1 770.5C364.5 792.51 363.13 814.5 362.27 836.5C362.02 842.82 362.01 849.17 361.64 855.48C361.49 858.14 360.55 861.54 361.5 864.07C362.7 867.31 368.05 870.63 370.55 872.93C378.94 880.63 387.35 888.56 396.5 895.35C397.38 889.87 396.89 884.08 396.84 878.5C396.74 867.16 396.29 855.84 396.14 844.5C395.63 808.16 394.51 771.83 393.85 735.5C392.8 678.48 390.56 621.51 389.21 564.5C388.33 527.13 387.13 489.82 385.14 452.5C384.62 442.72 384.41 432.84 383.5 423.08ZM514.2 628.5C513.66 630.38 512.42 631.74 511.9 633.55C510.53 638.28 511.52 646.35 511.5 651.51C507.38 652.71 502.33 653 498.26 651.5C500.11 644.55 506.75 630.24 514.2 628.5ZM531.81 652.27C527.37 652.27 522.94 652.27 518.5 652.27C517.44 646.22 519.31 639.47 517.92 633.53C517.49 631.68 516.3 630.47 515.86 628.5C522.32 629.86 530 646.07 531.81 652.27ZM609.67 628.5C609.53 630.9 608.33 632.19 607.96 634.5C607.03 640.19 608.22 646.26 607.5 651.98C603.17 652.53 598.83 652.78 594.72 651.5C596.78 644.98 602.89 631 609.67 628.5ZM611.5 628.6C619.04 633.88 624.68 643.47 627.04 652.28C622.86 652.28 618.68 652.28 614.5 652.28C613.49 646.52 615.1 640.26 613.79 634.55C613.08 631.49 611.4 632.34 611.5 628.6ZM511.47 659.07C511.47 701.24 511.47 743.41 511.47 785.59C506.99 786.76 502.03 786.78 497.59 785.5C497.59 743.36 497.59 701.21 497.59 659.07C502.21 659.07 506.84 659.07 511.47 659.07ZM518 658.98C522.72 658.98 527.44 658.98 532.15 658.98C532.15 701.44 532.15 743.9 532.15 786.37C527.44 786.37 522.72 786.37 518 786.37C518 743.9 518 701.44 518 658.98ZM607.88 659.06C607.88 701.4 607.88 743.73 607.88 786.07C603.1 786.42 598.14 786.94 593.63 785.5C593.63 743.35 593.63 701.21 593.63 659.06C598.38 659.06 603.13 659.06 607.88 659.06ZM614 658.98C618.7 658.98 623.4 658.98 628.1 658.98C628.1 701.42 628.1 743.86 628.1 786.3C623.4 786.3 618.7 786.3 614 786.3C614 743.86 614 701.42 614 658.98ZM499.5 792.89C500.67 794.28 499.98 792.12 500.75 793.7C501.51 795.25 499.13 798.73 499.11 800.5C499.09 802.81 500.51 804.6 500.5 806.77C499.61 806.56 498.83 807.04 498.11 806.22C497.47 805.49 497.37 794.51 497.97 793.69C499.15 792.05 498 794.23 499.5 792.89ZM503.77 793.07C506.34 793.07 508.91 793.07 511.47 793.07C511.47 797.63 511.47 802.2 511.47 806.76C508.91 806.76 506.34 806.76 503.77 806.76C503.77 802.2 503.77 797.63 503.77 793.07ZM518.08 793.02C520.53 793.02 522.98 793.02 525.43 793.02C525.43 797.6 525.43 802.18 525.43 806.76C522.98 806.76 520.53 806.76 518.08 806.76C518.08 802.18 518.08 797.6 518.08 793.02ZM530.5 792.89C531.94 794.39 530.73 791.93 531.84 793.7C532.34 794.5 532.33 805.6 531.82 806.26C531.01 807.31 529.61 806.78 528.5 806.81C528.37 803.55 529.71 800.96 528.9 797.5C528.75 796.84 527.77 794.31 528.17 793.7C528.81 792.74 529.59 793.21 530.5 792.89ZM596.5 792.88C598.06 794.75 595.44 797.79 595.39 800.51C595.35 802.78 596.6 804.62 596.5 806.8C595.58 806.59 594.8 807.1 594.05 806.24C593.46 805.56 593.4 794.38 593.96 793.67C594.75 792.68 595.5 793.19 596.5 792.88ZM600 793.07C602.61 793.07 605.22 793.07 607.83 793.07C607.83 797.65 607.83 802.22 607.83 806.8C605.22 806.8 602.61 806.8 600 806.8C600 802.22 600 797.65 600 793.07ZM614.07 793.1C616.46 793.1 618.85 793.1 621.24 793.1C621.24 797.66 621.24 802.22 621.24 806.78C618.85 806.78 616.46 806.78 614.07 806.78C614.07 802.22 614.07 797.66 614.07 793.1ZM624.13 806.5C625.15 801.71 625.53 798.15 623.56 793.5C624.68 793.3 626.15 792.44 627.29 793.19C628.66 794.09 628.09 797.1 628.1 798.5C628.11 802.8 629.83 807.45 624.13 806.5ZM511.46 814.4C511.46 842.56 511.46 870.71 511.46 898.86C506.84 898.86 502.21 898.86 497.59 898.86C497.59 870.41 497.59 841.95 497.59 813.5C501.97 813.2 507.69 812.4 511.46 814.4ZM532.17 813.36C532.17 841.87 532.17 870.39 532.17 898.9C527.45 898.9 522.73 898.9 518.01 898.9C518.01 870.39 518.01 841.87 518.01 813.36C522.73 813.36 527.45 813.36 532.17 813.36ZM607.87 813.38C607.87 841.87 607.87 870.37 607.87 898.86C603.13 898.86 598.4 898.86 593.66 898.86C593.66 870.37 593.66 841.87 593.66 813.38C598.4 813.38 603.13 813.38 607.87 813.38ZM628.1 813.39C628.1 841.88 628.1 870.37 628.1 898.86C623.42 898.86 618.74 898.86 614.05 898.86C614.05 870.37 614.05 841.88 614.05 813.39C618.74 813.39 623.42 813.39 628.1 813.39Z" fill="#03215b" fill-rule="evenodd" stroke="#03215b" stroke-width="0.25" stroke-linejoin="round" data-index="1" style="opacity: 1;"></path>
</svg>